<svg width="558" height="344" viewBox="0 0 558 344" fill="none" xmlns="http://www.w3.org/2000/svg">
<path d="M314.111 18.0363C302.894 22.0251 291.724 26.1887 280.723 30.7862C254.257 41.855 228.676 54.7374 204.472 70.241C189.82 79.6226 175.776 89.8298 162.97 101.646C153.749 110.142 145.184 119.24 138.802 130.158C135.524 135.762 132.944 141.649 132.469 148.235C131.795 157.683 136.017 164.534 143.897 169.324C150.092 173.096 156.985 174.867 164.071 175.952C175.667 177.699 187.306 177.458 198.957 176.398C227.407 173.801 254.853 166.757 281.787 157.526C318.033 145.15 352.624 129.146 385.207 108.924C402.428 98.2353 418.824 86.4254 433.548 72.4282C441.891 64.4987 449.566 56.0028 455.376 45.9704C458.456 40.6438 460.904 35.0522 461.469 28.864C462.408 18.6207 457.746 11.354 448.995 6.47941C443.16 3.22566 436.802 1.60481 430.27 0.562401C429.067 0.375611 427.912 0.206899 427.125 0.0924145C429.621 -0.208859 432.484 0.297283 435.347 0.598557C443.431 1.45417 451.382 3.00875 458.961 6.02148C466.239 8.96191 472.735 12.9809 477.12 19.7716C480.867 25.5802 481.932 31.9732 481.132 38.7277C479.929 48.8204 475.388 57.5573 469.902 65.8725C461.65 78.3814 451.358 89.0766 440.321 99.109C424.358 113.618 406.957 126.224 388.804 137.786C367.622 151.218 345.58 163.237 322.821 173.765C298.833 184.997 274.151 194.68 248.928 202.753C234.98 207.194 220.887 211.08 206.602 214.274C189.898 218.01 173.045 220.848 155.957 222.107C144.992 222.902 134.02 223.029 123.079 221.848C112.854 220.745 102.773 218.733 93.5525 213.828C86.5271 210.092 80.9213 204.934 78.1604 197.228C75.6583 190.262 76.2477 183.273 78.2928 176.325C80.7589 167.956 85.0474 160.509 90.0578 153.459C100.794 138.365 114.069 125.742 128.276 114.004C150.447 95.7227 174.524 80.3035 199.679 66.5112C226.283 51.9519 253.908 39.3476 282.335 28.7978C292.632 24.9575 303.036 21.4186 313.546 18.1809C313.732 18.1266 313.925 18.0785 314.111 18.0363Z" fill="#01206D"/>
<path d="M208.557 75.0191C211.203 72.6092 214.098 70.4902 217.194 68.6983C219.33 67.4932 221.308 66.0291 223.39 64.7456C224.31 64.1431 225.23 63.42 226.144 62.7874C227.185 62.0643 228.334 61.4858 229.411 60.7809C231.307 59.4123 233.32 58.2127 235.425 57.1957C236.394 56.7739 237.266 56.4907 238.27 57.2981C239.275 58.1056 240.141 56.8824 241.109 56.7378C241.837 56.6293 242.493 56.0388 243.191 55.6833C243.491 55.5327 243.882 55.364 244.063 55.8099C244.207 56.1593 243.864 56.2979 243.618 56.4666C238.405 59.9373 233.368 63.641 228.508 67.5776C226.391 69.2888 224.478 71.2471 222.325 72.8559C220.279 74.4984 218.324 76.2504 216.467 78.1041C214.551 79.8062 212.81 81.6955 211.27 83.7439C210.538 84.8358 209.68 85.837 208.713 86.7266C206.698 88.4559 205.778 90.9444 204.431 93.0955C201.147 98.3196 198.945 104.05 199.655 110.437C200.04 113.901 201.658 116.757 204.172 119.252C206.067 121.126 208.304 122.427 210.512 123.765C212.15 124.655 213.912 125.292 215.739 125.657C218.046 126.313 220.398 126.798 222.776 127.109C228.003 127.597 233.224 128.579 238.457 128.2C243.57 127.832 248.682 127.688 253.807 127.055C258.819 126.436 263.803 125.659 268.76 124.723C270.871 124.332 273.12 124.313 275.063 123.675C277.728 122.795 280.477 122.319 283.141 121.674C285.463 121.12 287.731 120.367 290.058 119.824C292.386 119.282 294.533 118.499 296.783 117.957C300.873 116.974 304.801 115.498 308.771 114.203C312.397 113.075 315.961 111.753 319.447 110.244C320.187 109.913 320.927 109.153 321.853 109.894C321.943 109.967 322.268 109.894 322.382 109.756C324.241 107.834 326.851 107.382 329.167 106.478C334.622 104.357 339.897 101.857 345.233 99.4644C350.153 97.2651 354.856 94.644 359.716 92.3543C363.205 90.7335 366.567 88.8897 369.942 87.07C372.498 85.6962 374.808 83.8283 377.424 82.6051C379.782 81.5085 381.851 79.972 384.04 78.6404C386.001 77.4353 387.944 76.1217 389.809 74.7298C390.872 73.8893 392.041 73.1924 393.285 72.6571C394.488 72.1871 394.939 71.0001 395.962 70.3975C397.772 69.3702 399.483 68.1781 401.075 66.8365C402.813 65.306 404.683 63.9141 406.398 62.3836C408.768 60.2808 411.348 58.4068 413.67 56.2557C415.991 54.1046 418.235 51.6884 420.418 49.3144C423.125 46.2988 425.623 43.1019 427.895 39.746C430.854 35.5281 433.044 31.0211 433.91 25.8874C434.319 23.7669 434.305 21.5862 433.868 19.4713C433.432 17.3563 432.581 15.349 431.365 13.5653C431.047 13.0893 429.82 12.9206 430.421 12.2276C431.023 11.5347 431.54 12.6615 432.129 12.9025C434.506 13.8756 436.497 15.6056 437.795 17.8253C438.998 19.9282 440.676 21.9166 440.953 24.5618C441.128 26.2911 442.09 26.5441 444.003 25.8151C445.807 25.1282 447.521 24.2786 449.536 24.3689C450.066 24.3689 450.595 23.8929 451.154 23.7061C452.189 23.3687 452.604 23.7423 452.261 24.7847C451.022 28.6169 450.541 32.7082 448.147 36.1487C447.612 36.92 447.455 38.0227 447.088 38.9687C446.252 41.0836 444.682 41.7042 442.691 42.0959C440.887 42.4454 439.173 42.9515 437.374 43.1985C436.171 43.3673 435.462 44.3253 435.016 45.2532C433.699 48.025 431.516 50.1519 429.771 52.6043C428.671 54.1468 427.281 55.4845 426.042 56.9306C425.772 57.2499 425.308 57.5994 425.621 58.0815C425.756 58.3207 425.966 58.5091 426.218 58.6179C426.47 58.7266 426.75 58.7499 427.017 58.684C428.671 58.0815 430.331 59.1419 431.973 58.5936C432.031 58.57 432.094 58.5602 432.157 58.5649C432.219 58.5697 432.28 58.5888 432.334 58.6208C432.388 58.6529 432.434 58.697 432.469 58.7498C432.503 58.8025 432.525 58.8625 432.532 58.925C432.526 59.1657 432.427 59.3945 432.256 59.5637C428.647 62.9922 425.266 66.6376 421.507 69.9215C419.594 71.5906 417.712 73.356 415.805 75.0311C414.133 76.5013 412.401 78.0438 410.343 79.0742C409.363 79.5623 408.894 80.5866 407.998 81.2374C405.977 82.7136 404.004 83.7078 401.381 83.2378C399.661 82.9245 397.863 83.1595 396.106 82.8883C395.688 82.8331 395.263 82.8644 394.857 82.9805C394.452 83.0966 394.074 83.2949 393.748 83.5632C391.451 85.3708 388.888 86.7928 386.476 88.4137C383.962 90.1068 381.256 91.4987 378.844 93.2823C376.191 95.2466 373.286 96.7168 370.477 98.3798C368.576 99.5126 368.522 99.844 370.086 101.393C370.754 102.043 371.439 102.682 372.083 103.357C372.991 104.321 372.901 104.797 371.716 105.454C369.015 106.936 366.303 108.466 363.596 109.882C357.756 112.949 351.909 116.016 346.033 119.011C343.422 120.337 340.709 121.469 338.063 122.729C335.055 124.169 332.048 125.687 328.968 127.109C327.674 127.689 326.349 128.198 324.999 128.634C323.681 129.08 323.236 128.031 322.647 127.176C321.751 125.862 320.782 124.597 319.808 123.343C319.333 122.741 318.737 122.741 317.961 122.922C315.345 123.524 312.951 124.771 310.407 125.585C308.602 126.187 306.864 126.953 305.089 127.615C301.992 128.772 298.846 129.76 295.7 130.731C293.932 131.273 292.29 132.165 290.461 132.538C289.952 132.7 289.431 132.821 288.903 132.9C286.612 133.008 285.132 134.147 284.35 136.352C283.881 137.672 282.72 138.612 282.089 139.913C281.144 141.866 279.827 143.643 278.738 145.535C278.668 145.711 278.55 145.864 278.398 145.978C278.247 146.092 278.067 146.162 277.878 146.18C275.897 146.478 273.959 147.012 272.104 147.771C269.698 148.65 267.22 149.066 264.814 149.807C260.435 151.151 255.948 152.151 251.473 153.169C248.231 153.911 244.905 154.296 241.687 155.128C238.469 155.959 235.269 155.863 232.159 156.779C231.992 156.83 231.813 156.826 231.648 156.768C231.484 156.709 231.342 156.599 231.245 156.453C230.956 156.08 231.245 155.809 231.468 155.549C233.17 153.362 234.475 150.856 236.147 148.705C236.97 147.649 237.725 146.542 238.409 145.391C238.697 144.921 238.679 144.68 238.168 144.535C237.47 144.33 236.767 143.932 236.021 144.204C232.797 145.3 229.404 145.119 226.102 145.246C222.644 145.372 219.179 145.975 215.679 145.421C214.115 145.174 212.671 146.12 211.468 147.054C210.043 148.138 208.816 149.428 207.077 150.121C206.091 150.518 205.357 151.518 204.449 152.157C202.265 153.694 199.962 155.104 197.832 156.67C194.38 159.225 191.216 157.213 187.92 156.851C186.843 156.737 185.664 156.809 184.618 156.411C181.61 155.242 178.386 154.603 175.427 153.224C175.342 153.176 175.26 153.123 175.181 153.067C172.72 151.579 172.811 150.922 175.566 149.319C178.377 147.629 181.075 145.757 183.643 143.715C184.636 142.95 185.959 142.824 186.819 141.751C187.679 140.679 187.884 140.287 186.591 139.702C183.637 138.377 181.304 136.274 178.994 134.093C178.176 133.322 177.153 133.695 176.396 134.153C174.098 135.539 171.584 136.388 169.178 137.563C167.524 138.377 165.791 139.04 164.113 139.805C163.061 140.287 163.085 139.419 162.91 138.871C161.911 135.1 162.045 131.118 163.295 127.423C163.501 126.868 163.633 126.289 163.686 125.699C163.734 124.753 164.24 124.404 165.064 124.06C167.939 122.855 170.736 121.463 173.623 120.3C175.668 119.475 176.961 118.312 177.496 116.004C178.098 113.401 179.662 111.136 181.021 108.834C181.304 108.358 181.514 107.972 181.093 107.533C180.93 107.343 180.707 107.214 180.462 107.166C180.217 107.118 179.963 107.154 179.74 107.267C178.008 108.123 175.993 107.93 174.266 108.792C173.929 108.961 173.442 109.105 173.166 108.762C172.769 108.274 173.292 107.984 173.557 107.659C175.68 105.098 177.767 102.501 179.938 99.9826C182.586 96.997 185.384 94.1492 188.323 91.4505C189.4 90.4382 191.066 90.2153 192.389 89.9863C196.457 89.3444 200.144 87.2175 202.741 84.0151C203.655 82.9185 204.93 82.3762 205.922 81.388C207.661 79.6587 209.7 78.2306 211.613 76.67C211.961 76.3868 212.376 76.0675 212.148 75.5674C211.919 75.0673 211.414 75.1576 210.945 75.1396C210.187 75.0853 209.411 75.2902 208.557 75.0191Z" fill="#FF9E01"/>
<path d="M364.179 78.6766C364.037 79.0488 364 79.4527 364.071 79.8447C364.142 80.2366 364.319 80.6016 364.582 80.9C365.496 82.2557 365.183 83.3102 363.692 84.1056C363.41 84.2692 363.098 84.3711 362.774 84.4046C362.451 84.4381 362.124 84.4025 361.815 84.2999C361.506 84.1974 361.223 84.0304 360.983 83.8099C360.744 83.5894 360.554 83.3205 360.426 83.021C360.311 82.7498 360.215 82.4666 360.113 82.1895C358.91 79.1767 356.727 77.9716 353.647 79.1406C351.5 79.942 349.473 79.1828 347.391 79.1406C346.91 79.0404 346.411 79.0653 345.942 79.2129C344.053 80.195 341.846 79.6045 339.927 80.418C339.729 80.4831 339.513 80.4679 339.326 80.3758C338.678 79.9676 337.906 79.804 337.149 79.9145C336.391 80.0249 335.698 80.4021 335.193 80.9783C334.706 81.4604 334.237 80.9783 333.9 80.6771C332.318 79.2972 330.688 79.2008 328.896 80.2613C327.832 80.7949 326.639 81.0163 325.455 80.9C325.018 80.8536 324.577 80.9553 324.205 81.1891C323.832 81.4228 323.548 81.7751 323.398 82.1895C322.953 83.1174 322.436 83.9971 321.913 84.907C320.523 87.2689 319.049 87.992 316.409 87.4015C315.14 87.1123 314.111 87.1906 313.191 88.1667C312.857 88.5241 312.445 88.8002 311.988 88.9741C310.075 89.6671 309.582 89.4441 308.656 87.6003C308.212 86.7739 307.952 85.8614 307.892 84.925C307.908 84.4278 307.775 83.9372 307.51 83.5163C307.245 83.0955 306.861 82.7635 306.406 82.5631C305.552 82.2738 304.897 83.1114 304.373 83.7681C304.136 84.11 303.831 84.3989 303.477 84.6166C303.123 84.8344 302.728 84.9764 302.316 85.0335C300.512 85.2203 299.609 86.7387 298.316 87.6666C297.57 88.1969 297.083 88.462 296.319 87.7028C295.555 86.9436 294.563 86.4133 293.721 87.3111C293.381 87.7078 293.194 88.2133 293.194 88.7361C293.194 89.259 293.381 89.7645 293.721 90.1612C294.28 90.9204 294.13 91.5289 293.721 92.3062C291.995 95.572 290.112 98.7475 288.157 101.863C287.977 102.152 287.796 102.562 287.556 102.658C285.366 103.429 285.571 105.442 285.15 107.147C285.023 107.671 285.24 108.352 284.386 108.533C284.049 108.62 283.692 108.573 283.39 108.401C283.088 108.229 282.865 107.945 282.768 107.611C282.732 107.527 282.648 107.454 282.605 107.37C281.854 105.677 280.717 104.616 278.714 104.767C277.619 104.851 277.282 104.448 277.661 103.273C278.401 100.947 277.715 99.2657 275.694 97.8497C275.291 97.5665 274.756 97.3315 274.78 96.7711C274.852 95.2346 274.834 93.7584 274.094 92.3243C273.818 91.7941 274.425 91.4687 274.768 91.1192C276.17 89.7635 276.188 88.6488 274.684 87.5039C273.18 86.3591 272.055 84.6599 270.01 84.2984C269.948 84.2891 269.888 84.2671 269.834 84.2337C269.781 84.2003 269.734 84.1564 269.698 84.1044C269.662 84.0525 269.637 83.9938 269.625 83.9318C269.612 83.8698 269.612 83.8059 269.625 83.744C269.926 82.4184 269.024 81.8159 268.182 81.0868C267.845 80.7795 267.111 80.5505 267.52 79.8154C267.647 79.517 267.868 79.2683 268.15 79.1074C268.431 78.9464 268.757 78.8819 269.078 78.9237C272.152 79.3575 273.156 76.9714 274.413 74.977C274.674 74.5265 274.811 74.0152 274.811 73.4947C274.811 72.9742 274.674 72.4629 274.413 72.0124C274.068 71.3025 273.788 70.5623 273.577 69.8011C273.524 69.3859 273.319 69.005 273.003 68.7314C272.687 68.4579 272.281 68.311 271.863 68.3188C271.466 68.3188 270.846 68.4695 270.732 67.9151C270.674 67.5968 270.712 67.2683 270.842 66.9719C270.971 66.6755 271.187 66.4248 271.46 66.2521C272.807 65.288 274.287 64.5107 275.213 63.0044C276.284 61.269 276.194 60.1543 274.612 58.8408C273.812 58.184 273.018 57.5212 272.206 56.9126C271.604 56.4607 271.538 56.0389 272.079 55.5087C272.254 55.34 272.386 55.1291 272.555 54.9483C274.359 52.984 274.419 52.4959 273.036 50.1279C272.569 49.4386 272.143 48.7224 271.761 47.9829C271.219 46.7778 271.159 45.5727 271.941 44.5001C272.621 43.5602 272.392 42.8733 271.568 42.2466C270.744 41.62 270.774 41.0958 271.568 40.4812C272.224 39.963 272.831 39.3845 273.475 38.8543C273.734 38.6374 274.016 38.4867 274.155 38.1192C274.756 36.5465 275.959 35.956 277.559 36.5043C278.858 36.9563 280.109 37.5407 281.421 37.9384C283.303 38.5048 284.975 38.7217 286.936 37.3901C288.344 36.4381 290.497 36.5224 291.652 34.8232C293.721 35.8837 296.307 34.3111 298.232 36.1127C299.471 37.2696 301.053 37.9203 302.515 38.6313C303.976 39.3423 305.612 38.7217 307.122 38.3421C309.696 37.6974 310.238 37.8058 311.934 39.9328C315.356 44.2893 314.454 43.036 319.224 41.7405C320.168 41.4814 321.028 41.0235 321.991 40.7342C324.463 39.9569 325.93 40.7342 326.033 43.3312C326.135 45.9282 327.236 47.8383 328.439 49.8327C329.798 52.0019 331.476 52.6044 333.816 51.7006C335.128 51.1464 336.476 50.6833 337.852 50.3147C338.213 50.1565 338.601 50.0685 338.995 50.0556C341.085 50.4802 343.258 50.0832 345.064 48.9469C345.187 48.8942 345.322 48.8775 345.455 48.8987C345.786 50.3449 346.754 50.0195 347.794 49.8869C348.246 49.8327 348.847 50.2966 348.264 51.0016C347.532 51.74 347.041 52.6833 346.856 53.7071C346.802 54.1951 346.339 54.1469 346.044 54.165C343.337 54.3036 340.715 55.6473 337.93 54.7013C337.598 54.6036 337.253 54.5628 336.908 54.5808C336.102 54.5808 335.103 54.2614 334.76 55.3339C334.417 56.4065 335.464 56.8283 336.192 57.2681C336.564 57.5189 337 57.6602 337.448 57.6762C337.897 57.6922 338.341 57.5821 338.73 57.3585C339.073 57.1305 339.478 57.0129 339.889 57.0215C340.301 57.0301 340.7 57.1645 341.034 57.4067C343.404 58.7082 345.81 59.7325 348.594 58.5395C349.334 58.2201 349.93 59.0095 350.543 59.3831C351.049 59.6843 351.518 60.1483 352.107 59.5819C353.966 57.7743 355.987 58.6419 357.863 59.3891C359.56 60.1623 361.213 61.0293 362.814 61.9861C362.999 62.0558 363.169 62.1623 363.313 62.2994C365.472 65.4929 369.328 66.0533 372.257 68.0115C372.708 68.3683 373.032 68.8606 373.183 69.416C373.333 69.9713 373.302 70.5604 373.093 71.0966C372.455 72.428 371.748 73.7253 370.976 74.983C370.266 76.0977 369.46 77.0738 369.616 78.5983C369.695 79.3756 369.015 79.8877 368.095 79.7431C366.736 79.6245 365.41 79.2633 364.179 78.6766Z" fill="#0AA807"/>
<path d="M0 239.539C8.01179 239.539 16.0296 239.539 24.0594 239.497C25.2323 239.497 25.4008 239.888 25.4008 240.931C25.3687 273.641 25.3687 306.355 25.4008 339.074C25.4008 339.941 25.4008 340.502 24.1978 340.49C16.1319 340.43 8.07194 340.448 0.00601156 340.436L0 239.539Z" fill="#01206D"/>
<path d="M94.8994 297.479C94.8994 284.97 94.8994 272.6 94.8994 260.23C94.8994 253.722 94.8994 247.215 94.8513 240.707C94.8513 239.647 95.0557 239.255 96.2106 239.267C103.007 239.323 109.8 239.323 116.589 239.267C117.738 239.267 117.972 239.623 117.972 240.689C117.948 273.532 117.948 306.373 117.972 339.212C117.972 340.296 117.624 340.483 116.637 340.477C110.73 340.429 104.824 340.429 98.9173 340.477C98.4679 340.516 98.0177 340.412 97.6303 340.181C97.2429 339.949 96.9377 339.602 96.758 339.187C84.4395 317.897 72.097 296.607 59.7305 275.317C59.3784 274.632 58.901 274.019 58.323 273.51V275.185C58.3591 296.435 58.4052 317.687 58.4614 338.94C58.4614 340.381 58.1185 340.748 56.693 340.718C50.0766 340.634 43.5024 340.652 36.9101 340.718C35.8756 340.718 35.5929 340.441 35.5929 339.41C35.5568 306.471 35.4926 273.532 35.4004 240.593C35.4004 239.544 35.7011 239.279 36.7236 239.285C44.2543 239.333 51.7849 239.333 59.3155 239.285C59.763 239.243 60.2125 239.343 60.6 239.572C60.9876 239.8 61.2936 240.144 61.4748 240.557C72.2574 259.107 83.0661 277.645 93.9009 296.172C94.1535 296.599 94.2859 297.16 94.8994 297.479Z" fill="#01206D"/>
<path d="M128.003 289.999C128.003 273.582 127.993 257.164 127.973 240.747C127.973 239.59 128.334 239.373 129.392 239.373C153.051 239.401 176.721 239.401 200.404 239.373C201.462 239.373 201.703 239.71 201.697 240.711C201.649 246.736 201.637 252.762 201.697 258.787C201.697 259.92 201.396 260.149 200.319 260.149C185.066 260.113 169.812 260.149 154.552 260.101C153.319 260.101 152.862 260.281 152.892 261.673C152.994 266.355 152.97 271.043 152.892 275.725C152.892 276.839 153.175 277.117 154.282 277.111C164.266 277.062 174.257 277.111 184.248 277.044C185.577 277.044 186.052 277.225 186.052 278.743C185.938 284.215 185.974 289.686 186.052 295.157C186.052 296.296 185.8 296.645 184.609 296.639C174.618 296.585 164.627 296.639 154.643 296.579C153.289 296.579 152.922 296.934 152.928 298.302C152.976 311.859 152.928 325.417 152.994 338.974C152.994 340.384 152.567 340.625 151.286 340.613C144 340.553 136.718 340.553 129.44 340.613C128.237 340.613 128.009 340.252 128.009 339.125C128.045 322.76 128.045 306.394 128.009 290.029L128.003 289.999Z" fill="#01206D"/>
<path d="M211.697 290.04C211.727 282.551 211.619 275.067 212.251 267.583C213.051 258.129 216.238 249.965 224.112 244.15C229.255 240.348 235.095 238.275 241.363 237.384C250.253 236.124 259.034 236.522 267.515 239.74C279.208 244.18 285.848 252.646 287.334 265.137C287.915 270.03 288.196 274.954 288.176 279.881C288.14 289.492 288.465 299.109 287.887 308.713C287.509 315.076 286.817 321.367 283.521 327.061C278.991 334.846 272.002 339.329 263.467 341.431C251.474 344.384 239.63 344.053 228.413 338.389C219.523 333.9 214.386 326.5 212.834 316.594C211.475 307.779 211.763 298.904 211.697 290.04ZM236.96 288.95C236.96 293.77 236.924 297.717 236.96 301.663C237.008 306.195 237.08 310.702 238.006 315.191C238.842 319.234 241.014 321.987 245.128 322.951C247.869 323.572 250.705 323.65 253.476 323.18C258.018 322.463 260.785 319.927 261.717 315.347C262.427 311.815 262.782 308.219 262.775 304.616C262.812 294.559 262.836 284.509 262.775 274.452C262.824 270.656 262.363 266.87 261.404 263.197C261.022 261.631 260.207 260.205 259.052 259.082C257.898 257.958 256.451 257.183 254.878 256.846C251.957 256.129 248.916 256.055 245.964 256.629C241.585 257.4 238.981 259.973 238.078 264.305C237.57 266.715 237.257 269.161 237.14 271.62C236.839 277.7 236.99 283.768 236.96 288.95Z" fill="#01206D"/>
<path d="M351.683 299.812C351.683 312.923 351.683 326.035 351.683 339.152C351.683 340.303 351.413 340.622 350.246 340.616C342.867 340.56 335.485 340.56 328.099 340.616C326.896 340.616 326.77 340.225 326.77 339.194C326.798 319.816 326.798 300.44 326.77 281.067C326.77 274.216 326.77 267.359 326.8 260.508C326.8 259.266 326.427 258.935 325.212 258.941C316.743 258.989 308.28 258.941 299.817 259.007C298.476 259.007 298.217 258.616 298.235 257.356C298.307 251.885 298.289 246.414 298.235 240.943C298.235 239.87 298.374 239.394 299.643 239.394C324.4 239.437 349.151 239.394 373.902 239.473C375.652 239.473 377.391 239.31 379.141 239.394C379.821 239.431 380.079 239.569 380.073 240.304C380.073 246.221 380.037 252.138 380.073 258.055C380.073 259.26 379.328 258.953 378.708 258.953C370.287 258.953 361.866 259.001 353.446 258.953C351.996 258.953 351.575 259.266 351.581 260.761C351.647 273.776 351.617 286.791 351.617 299.812H351.683Z" fill="#01206D"/>
<path d="M390.11 289.945C390.11 273.628 390.11 257.311 390.074 240.988C390.074 239.65 390.453 239.385 391.716 239.385C416.862 239.429 442.011 239.429 467.161 239.385C468.544 239.385 468.965 239.699 468.965 241.157C468.869 246.58 468.893 252.003 468.965 257.426C468.965 258.631 468.731 258.986 467.461 258.98C450.62 258.938 433.778 258.98 416.973 258.92C415.469 258.92 415 259.257 415.036 260.824C415.144 265.704 415.12 270.585 415.036 275.466C415.036 276.737 415.289 277.123 416.624 277.117C427.156 277.05 437.676 277.117 448.22 277.038C449.591 277.038 449.91 277.424 449.892 278.756C449.82 284.227 449.82 289.698 449.892 295.169C449.892 296.374 449.537 296.621 448.4 296.621C437.82 296.579 427.24 296.621 416.66 296.567C415.385 296.567 415.018 296.838 415.03 298.176C415.102 305.274 415.102 312.374 415.03 319.476C415.03 320.856 415.451 321.054 416.678 321.048C433.61 321.012 450.536 321.048 467.467 320.988C468.839 320.988 469.272 321.241 469.272 322.73C469.17 328.201 469.2 333.672 469.272 339.143C469.272 340.348 468.935 340.601 467.798 340.601C442.408 340.565 417.015 340.565 391.62 340.601C390.345 340.601 390.116 340.228 390.116 339.047C390.156 322.677 390.156 306.308 390.116 289.939L390.11 289.945Z" fill="#01206D"/>
<path d="M479.314 290.109C479.314 273.744 479.314 257.373 479.278 241.002C479.278 239.676 479.626 239.381 480.914 239.393C493.755 239.495 506.603 239.2 519.445 239.688C525.965 239.935 532.431 240.55 538.692 242.647C543.819 244.397 548.335 247.589 551.701 251.84C555.067 256.091 557.141 261.222 557.675 266.622C558.277 273.328 557.735 279.818 554.668 285.904C550.68 293.881 544.004 298.424 535.559 300.624C528.209 302.54 520.678 302.678 513.159 302.913C510.651 302.992 508.137 303.01 505.629 302.913C504.486 302.877 504.161 303.179 504.167 304.36C504.215 315.85 504.167 327.335 504.227 338.825C504.227 340.241 503.915 340.633 502.477 340.591C495.193 340.506 487.909 340.524 480.625 340.591C479.506 340.591 479.266 340.295 479.272 339.205C479.308 322.832 479.308 306.46 479.272 290.091L479.314 290.109ZM504.215 271.021C504.215 274.72 504.215 278.42 504.215 282.12C504.215 283.288 503.854 284.813 504.444 285.542C505.033 286.271 506.657 285.777 507.818 285.789C512.985 285.843 518.152 285.843 523.228 284.62C526.38 283.861 529.201 282.553 530.849 279.559C532.714 276.184 532.852 272.515 532.545 268.779C532.022 262.476 529.117 259.096 522.994 257.71C517.075 256.373 511.06 256.62 505.063 256.566C504.119 256.566 504.209 257.096 504.209 257.71C504.221 262.145 504.223 266.582 504.215 271.021Z" fill="#01206D"/>
</svg>
