<svg xmlns="http://www.w3.org/2000/svg" id="Layer_1" data-name="Layer 1" viewBox="0 0 1901.43 362.86"><defs><style>      .cls-1 {        fill: #5bc0be;      }      .cls-1, .cls-2, .cls-3, .cls-4 {        stroke-width: 0px;      }      .cls-2 {        fill: #000;      }      .cls-3 {        fill: #3a506b;      }      .cls-4 {        fill: #a7a9ac;      }    </style></defs><path class="cls-2" d="M887.99,55.37c13.6,0,21.44,4.39,28.94,16.21l.84,1.33,4.93-4.69-.57-.9c-8.39-13.18-18.28-18.56-34.14-18.56-21.28,0-33.48,8.49-33.48,23.28,0,13.1,7.78,21.73,23.81,26.4l17.22,4.59c14.31,4.11,19.89,9.92,19.89,20.74,0,11.76-10.87,19.97-26.43,19.97-17.88,0-25.53-6.91-32.07-18.05l-.81-1.37-5.13,4.66.53.9c8.79,14.92,18.98,20.47,37.61,20.47,16.59,0,33.35-8.22,33.35-26.58s-13.11-24.29-24.54-27.27l-17.64-4.59c-12.97-3.7-18.74-9.83-18.74-19.87,0-14.5,16.56-16.67,26.43-16.67Z"></path><path class="cls-2" d="M987.62,131.65c-4.46,5.6-12.26,12.09-24.43,12.09-13.34,0-19.83-6.35-19.83-19.4v-44.83h-6.91v45.4c0,16.88,8.75,25.44,26.02,25.44,9.81,0,19.07-3.73,25.44-10.1v8.24h6.62v-68.97h-6.91v52.14Z"></path><path class="cls-2" d="M1075.26,120.89v-14.22c0-25.26-19.18-29.03-30.62-29.03-12.49,0-21.76,4.13-26.72,11.77v-9.9h-6.62v95.7h6.91v-35.03c5.05,6.51,14.09,10.17,25.57,10.17,20.3,0,31.48-10.46,31.48-29.46ZM1043.93,83.97c7.34,0,24.43,2.23,24.43,22.84v13.94c0,21.01-17.48,23.28-25,23.28-6.89,0-23.14-1.82-25.15-18.54v-21.65c2.36-16.43,15.29-19.87,25.72-19.87Z"></path><path class="cls-2" d="M1145.88,137.98l.64-.98-5-4.06-.79,1.14c-4.64,6.6-12.55,9.95-23.52,9.95s-23.84-4.14-23.84-23.86v-3.02h53.59v-9.77c0-25.88-18.64-29.74-29.75-29.74-19.54,0-30.75,10.84-30.75,29.74v12.94c0,19.37,10.92,30.03,30.75,30.03,13.51,0,23.43-4.28,28.68-12.37ZM1093.37,111.12v-3.88c0-21,16.57-23.27,23.7-23.27s23.12,2.27,23.12,23.27v3.88h-46.82Z"></path><path class="cls-2" d="M1168.5,97.2c4.04-8.2,11.12-13.08,18.96-13.08,5.02,0,8.77,1.29,12.55,4.31l1.23.99,3.27-6.3-.94-.65c-3.45-2.39-8.01-4.83-15.68-4.83s-15.14,3.71-19.67,9.73v-7.86h-6.62v68.97h6.92v-51.29Z"></path><path class="cls-2" d="M1220.11,61.69c3.14,0,5.33-2.13,5.33-5.18s-2.14-5.18-5.33-5.18-5.33,2.08-5.33,5.18,2.19,5.18,5.33,5.18Z"></path><rect class="cls-2" x="1216.81" y="79.51" width="6.91" height="68.97"></rect><path class="cls-2" d="M1247.61,96.22c6.82-7.94,15.28-11.97,25.14-11.97,13.34,0,19.83,6.39,19.83,19.54v44.69h6.91v-45.27c0-16.88-8.7-25.44-25.87-25.44-11.98,0-21.09,4.96-26.43,10.34v-8.61h-6.48v68.97h6.91v-52.26Z"></path><path class="cls-2" d="M1319.24,123.62c0,18.23,7.76,26.73,24.43,26.73,9.16,0,17.92-2.26,24.67-6.37l1.05-.64-3.1-5.73-1.17.71c-5.86,3.57-13.73,5.71-21.02,5.71-12.25,0-17.95-6.53-17.95-20.55v-37.79h36.21v-6.18h-36.21v-15.81h-6.91v15.81h-9.48v6.18h9.48v37.94Z"></path><path class="cls-2" d="M1435.63,137.98l.64-.98-5-4.06-.79,1.14c-4.64,6.6-12.55,9.95-23.51,9.95s-23.85-4.14-23.85-23.86v-3.02h53.59v-9.77c0-25.88-18.64-29.74-29.75-29.74-19.54,0-30.75,10.84-30.75,29.74v12.94c0,19.37,10.92,30.03,30.75,30.03,13.51,0,23.43-4.28,28.67-12.37ZM1383.11,111.12v-3.88c0-21,16.57-23.27,23.7-23.27s23.13,2.27,23.13,23.27v3.88h-46.83Z"></path><path class="cls-2" d="M1484.25,77.78c-11.98,0-21.09,4.96-26.43,10.34v-8.61h-6.48v68.97h6.91v-52.26c6.81-7.94,15.27-11.97,25.13-11.97,13.34,0,19.83,6.39,19.83,19.54v44.69h6.92v-45.27c0-16.88-8.7-25.44-25.87-25.44Z"></path><path class="cls-2" d="M1580.63,88.24c-7.02-9.12-18.72-10.6-25.57-10.6-11.92,0-31.9,3.94-31.9,30.32v12.21c0,26.26,19.9,30.18,31.76,30.18,6.87,0,18.72-1.6,26.06-11.48l.11,9.62h6.46V39.99h-6.92v48.25ZM1555.64,83.97c9.93,0,21.68,4.28,24.99,16.27v27.2c-5.36,15.39-20.59,16.6-25.14,16.6-7.65,0-25.42-2.34-25.42-24v-11.93c0-21,16.02-24.13,25.57-24.13Z"></path><path class="cls-2" d="M1656.94,132.94l-.79,1.14c-4.64,6.6-12.55,9.95-23.52,9.95s-23.84-4.14-23.84-23.86v-3.02h53.59v-9.77c0-25.88-18.64-29.74-29.75-29.74-19.54,0-30.75,10.84-30.75,29.74v12.94c0,19.37,10.92,30.03,30.75,30.03,13.51,0,23.43-4.28,28.68-12.37l.64-.98-5-4.06ZM1608.8,111.12v-3.88c0-21,16.57-23.27,23.7-23.27s23.12,2.27,23.12,23.27v3.88h-46.82Z"></path><path class="cls-2" d="M1709.05,77.78c-11.99,0-21.1,4.96-26.44,10.34v-8.61h-6.48v68.97h6.92v-52.26c6.81-7.94,15.27-11.97,25.13-11.97,13.34,0,19.83,6.39,19.83,19.54v44.69h6.91v-45.27c0-16.88-8.7-25.44-25.86-25.44Z"></path><path class="cls-2" d="M1802.61,132.3c-4.61,7.78-12.3,11.73-22.89,11.73-11.34,0-24.85-4.17-24.85-24v-12.07c0-19.83,13.51-23.99,24.85-23.99,7.25,0,17.02,2.06,22.43,11.83l.71,1.29,5.25-3.83-.52-.99c-5.13-9.85-14.29-14.63-28.02-14.63-14.42,0-31.61,5.28-31.61,30.46v11.93c0,19.55,11.18,30.32,31.47,30.32,13.46,0,23.13-4.91,28.71-14.59l.61-1.06-5.46-3.56-.68,1.16Z"></path><path class="cls-2" d="M1826.42,51.34c-3.18,0-5.32,2.08-5.32,5.18s2.19,5.18,5.32,5.18,5.33-2.13,5.33-5.18-2.14-5.18-5.33-5.18Z"></path><rect class="cls-2" x="1823.12" y="79.51" width="6.91" height="68.97"></rect><path class="cls-2" d="M1873.12,77.64c-11.77,0-20.96,4.08-27.31,12.14l-.7.88,4.32,4.57.94-1.06c6.54-7.34,12.79-10.2,22.31-10.2,14.69,0,21.84,6.3,21.84,19.25v6.61h-25.57c-16.83,0-25.01,6.63-25.01,20.26,0,12.88,8.54,20.26,23.42,20.26,9.27,0,20.81-3.05,27.59-11.33v9.46h6.47v-45.56c0-16.78-9.53-25.29-28.31-25.29ZM1894.52,116.01v13.01c-3.7,11.17-16.14,15.15-26.58,15.15-10.96,0-17.24-5.18-17.24-14.23,0-9.76,5.5-13.93,18.4-13.93h25.42Z"></path><path class="cls-2" d="M905.94,248.85c-7.03-9.13-18.73-10.61-25.57-10.61-11.92,0-31.9,3.94-31.9,30.32v12.22c0,26.25,19.9,30.17,31.76,30.17,6.87,0,18.72-1.6,26.06-11.48l.11,9.62h6.46v-108.49h-6.91v48.25ZM880.94,244.57c9.93,0,21.68,4.28,25,16.27v27.2c-5.37,15.39-20.59,16.6-25.15,16.6-7.65,0-25.42-2.34-25.42-24v-11.92c0-21.01,16.02-24.14,25.57-24.14Z"></path><path class="cls-2" d="M957.94,238.24c-19.54,0-30.75,10.84-30.75,29.75v12.93c0,19.37,10.92,30.03,30.75,30.03,13.51,0,23.43-4.28,28.67-12.37l.64-.98-5-4.06-.79,1.14c-4.64,6.6-12.55,9.95-23.51,9.95s-23.85-4.14-23.85-23.85v-3.02h53.59v-9.77c0-25.88-18.64-29.75-29.75-29.75ZM934.1,271.72v-3.88c0-21,16.57-23.27,23.7-23.27s23.13,2.27,23.13,23.27v3.88h-46.83Z"></path><polygon class="cls-2" points="1049.38 262.1 1097.86 262.1 1097.86 255.78 1049.38 255.78 1049.38 217.99 1106.79 217.99 1106.79 211.23 1042.32 211.23 1042.32 309.09 1106.93 309.09 1106.93 302.47 1049.38 302.47 1049.38 262.1"></polygon><rect class="cls-2" x="1120.72" y="200.6" width="6.92" height="108.49"></rect><path class="cls-2" d="M1171.04,238.24c-19.57,0-30.8,10.84-30.8,29.75v12.93c0,19.37,10.94,30.03,30.8,30.03,13.52,0,23.46-4.28,28.71-12.37l.64-.98-5.02-4.06-.8,1.13c-4.65,6.6-12.57,9.95-23.54,9.95s-23.87-4.14-23.87-23.85v-3.02h53.66v-9.77c0-25.88-18.66-29.75-29.79-29.75ZM1147.17,271.72v-3.88c0-21,16.59-23.27,23.73-23.27s23.16,2.27,23.16,23.27v3.88h-46.89Z"></path><path class="cls-2" d="M1267.37,292.91c-4.61,7.78-12.33,11.72-22.92,11.72-11.35,0-24.88-4.17-24.88-24v-12.07c0-19.83,13.53-23.99,24.88-23.99,7.26,0,17.05,2.06,22.46,11.83l.71,1.29,5.26-3.83-.52-.99c-5.13-9.85-14.31-14.63-28.06-14.63-14.44,0-31.65,5.28-31.65,30.47v11.92c0,19.55,11.19,30.32,31.51,30.32,13.49,0,23.17-4.91,28.76-14.59l.61-1.06-5.46-3.56-.68,1.16Z"></path><path class="cls-2" d="M1339.15,298.93c-5.87,3.57-13.74,5.71-21.04,5.71-12.26,0-17.98-6.53-17.98-20.55v-37.79h36.25v-6.18h-36.25v-15.81h-6.92v15.81h-9.49v6.18h9.49v37.94c0,18.23,7.78,26.72,24.47,26.72,9.17,0,17.94-2.26,24.7-6.36l1.06-.64-3.11-5.73-1.17.71Z"></path><path class="cls-2" d="M1380.7,238.24c-7.86,0-15.16,3.71-19.7,9.73v-7.86h-6.63v68.97h6.92v-51.29c4.05-8.2,11.14-13.08,18.98-13.08,5.03,0,8.79,1.29,12.58,4.31l1.24.99,3.25-6.3-.93-.65c-3.45-2.39-8.02-4.83-15.7-4.83Z"></path><path class="cls-2" d="M1412.28,211.94c-3.19,0-5.33,2.08-5.33,5.18s2.19,5.18,5.33,5.18,5.33-2.13,5.33-5.18-2.14-5.18-5.33-5.18Z"></path><rect class="cls-2" x="1408.97" y="240.12" width="6.92" height="68.97"></rect><path class="cls-2" d="M1483.66,292.91c-4.61,7.78-12.32,11.72-22.92,11.72-11.35,0-24.88-4.17-24.88-24v-12.07c0-19.83,13.53-23.99,24.88-23.99,7.26,0,17.05,2.06,22.46,11.83l.71,1.29,5.26-3.83-.52-.99c-5.13-9.85-14.31-14.63-28.06-14.63-14.44,0-31.65,5.28-31.65,30.47v11.92c0,19.55,11.19,30.32,31.52,30.32,13.49,0,23.16-4.91,28.75-14.59l.61-1.06-5.46-3.56-.68,1.16Z"></path><path class="cls-2" d="M1506.01,211.94c-3.19,0-5.33,2.08-5.33,5.18s2.19,5.18,5.33,5.18,5.33-2.13,5.33-5.18-2.14-5.18-5.33-5.18Z"></path><rect class="cls-2" x="1502.7" y="240.12" width="6.92" height="68.97"></rect><path class="cls-2" d="M1580.07,248.85c-7.04-9.13-18.75-10.61-25.61-10.61-11.93,0-31.94,3.94-31.94,30.32v12.22c0,26.25,19.92,30.17,31.8,30.17,6.88,0,18.75-1.6,26.09-11.48l.11,9.62h6.47v-108.49h-6.92v48.25ZM1555.04,244.57c4.83,0,20.86,1.18,25.03,16.27v27.2c-5.37,15.39-20.62,16.6-25.18,16.6-7.66,0-25.46-2.34-25.46-24v-11.92c0-21.01,16.04-24.14,25.6-24.14Z"></path><path class="cls-2" d="M1629.7,238.24c-11.79,0-20.99,4.08-27.35,12.14l-.7.88,4.33,4.57.94-1.06c6.54-7.34,12.8-10.2,22.34-10.2,14.71,0,21.86,6.3,21.86,19.25v6.61h-25.59c-16.85,0-25.04,6.63-25.04,20.26,0,12.88,8.55,20.26,23.45,20.26,9.28,0,20.84-3.05,27.63-11.33v9.46h6.47v-45.56c0-16.78-9.54-25.29-28.34-25.29ZM1651.13,276.61v13.01c-3.71,11.17-16.15,15.16-26.61,15.16-10.97,0-17.26-5.19-17.26-14.23,0-9.76,5.51-13.93,18.41-13.93h25.46Z"></path><path class="cls-2" d="M1728.24,248.85c-7.04-9.12-18.75-10.6-25.61-10.6-11.93,0-31.94,3.94-31.94,30.32v12.22c0,26.25,19.92,30.17,31.8,30.17,6.88,0,18.75-1.6,26.09-11.48l.11,9.62h6.46v-108.49h-6.92v48.25ZM1703.2,244.57c4.83,0,20.86,1.18,25.03,16.27v27.2c-5.37,15.39-20.61,16.6-25.17,16.6-7.66,0-25.46-2.34-25.46-24v-11.92c0-21.01,16.03-24.14,25.59-24.14Z"></path><rect class="cls-4" x="769.24" width="8.66" height="362.86"></rect><path class="cls-1" d="M684.93,50.86v28.67h-202.58c-21.01,0-38.05,17.04-38.05,38.05v16.86h-32.12v-18.19c0-36.02,23.73-65.39,68.67-65.39h204.08Z"></path><path class="cls-1" d="M480.85,309.05c-44.93,0-68.67-29.37-68.67-65.39v-18.19h32.12v16.86c0,21.01,17.04,38.05,38.05,38.05h202.58v28.67h-204.08Z"></path><rect class="cls-3" x="412.19" y="164.76" width="172.23" height="30.34"></rect><path class="cls-3" d="M236.75,86c-5.36-2.73-15.05-4.99-29.07-6.77-14.02-1.78-32.13-2.67-54.31-2.67h-10.71c-16.82,0-34.23.78-52.2,2.33-17.98,1.55-31.05,4.13-39.2,7.75-8.17,3.62-13.39,8.53-15.69,14.73-2.29,6.2-3.44,13.69-3.44,22.47,0,15.77,4.26,26.49,12.81,32.17,8.54,5.69,20.97,8.52,37.29,8.52h87.97c10.45,0,19.76.13,27.92.38,8.16.26,20.46,1.27,36.91,3.06,16.44,1.78,29.7,7.56,39.77,17.35,10.07,9.79,15.11,26.51,15.11,50.17,0,15.51-2.43,28.42-7.27,38.72-4.84,10.3-13.07,18.06-24.66,23.27-11.61,5.21-25.63,8.58-42.07,10.1-16.45,1.52-34.37,2.28-53.74,2.28h-20.28c-19.12,0-33.47-.2-43.03-.59-9.56-.4-24.22-1.92-43.98-4.56-19.77-2.64-33.85-9.59-42.27-20.83-8.41-11.24-12.62-30.88-12.62-58.92h30.98v5.66c0,13.73,1.21,23.89,3.64,30.48,2.42,6.59,8.66,11.44,18.74,14.53,10.07,3.1,23.52,5.11,40.35,6.06,16.82.94,33.4,1.41,49.72,1.41,26.52,0,48.89-1.15,67.12-3.47,18.23-2.32,30.66-6.69,37.29-13.11,6.63-6.43,9.94-16.97,9.94-31.63,0-18.51-4.27-30.28-12.79-35.29-8.54-5.01-22.98-7.52-43.35-7.52h-58.43l-68.36-1.91c-23.93,0-42.39-4.59-55.38-13.77C6.49,167.21,0,151.65,0,129.72c0-17.34,2.79-31.81,8.4-43.41,5.59-11.6,15.08-19.89,28.45-24.86,13.37-4.97,29.09-8.16,47.18-9.56,18.08-1.4,38.32-2.1,60.73-2.1,18.59,0,32.02.2,40.3.6,8.27.4,21.77,1.59,40.48,3.58,18.72,2,33.04,8.7,42.97,20.12,9.93,11.42,14.9,28.82,14.9,52.19h-30.98c0-12.32-1.34-21.5-4.01-27.53-2.68-6.02-6.57-10.27-11.67-12.74Z"></path><path class="cls-3" d="M363.99,50.96v257.91h-30.34V50.96h30.34Z"></path></svg>