<svg xmlns="http://www.w3.org/2000/svg" xmlns:xlink="http://www.w3.org/1999/xlink" viewBox="0 0 815.19 273.87"><defs><style>.cls-1,.cls-5{fill:#00374f;}.cls-2{fill:#fff;}.cls-2,.cls-3,.cls-4,.cls-5{fill-rule:evenodd;}.cls-3{fill:#f6f9f6;}.cls-4{fill:#73b96d;}</style><symbol id="logoisoletras_2" data-name="logoisoletras 2" viewBox="0 0 27.17 25.57"><g id="Layer_3" data-name="Layer 3"><rect class="cls-1" width="27.17" height="25.57"/><path class="cls-2" d="M8.6,6.79a8.9,8.9,0,0,0,1.81-1.33l2.64-.81a2.25,2.25,0,0,1,.94-.1,3.74,3.74,0,0,1,.95.1,13.81,13.81,0,0,1,2.53.57A15.62,15.62,0,0,1,22,7.34l.89.66,2.76-3.3v12a6,6,0,0,0-.75-2.64,6.53,6.53,0,0,0-2.09-2.29A11.36,11.36,0,0,0,21,10.7c-.56-.24-1-.42-1.34-.53h-.35l-.82.15a2,2,0,0,1-1.34-.42l-.91-.52a.8.8,0,0,1-.41-.15,6.06,6.06,0,0,0-3.09-.68h-.29l-.21-.2a.72.72,0,0,1-.16-.4c0-.22.15-.38.45-.49A6.84,6.84,0,0,1,14,7.34a7.68,7.68,0,0,0,1.46.12,1.84,1.84,0,0,0-1.05-.74c-.79-.06-1.29-.09-1.51-.09h-.75a1.07,1.07,0,0,1-.53,0l-.11.3a2,2,0,0,1-.17.6L11,8.09a.34.34,0,0,1-.26,0c-.06,0-.09-.08-.07-.13l.06-.37V7.34l-.56.81a.88.88,0,0,1-.38.28.45.45,0,0,1-.34,0c-.14-.11-.22-.18-.22-.2l.11-.14.39-.78-.63.3a2,2,0,0,1-.61.23,1.39,1.39,0,0,1-.59.1c-.22-.07-.34-.16-.38-.27s-.13-.32-.07-.35ZM1.78,11.25a6.59,6.59,0,0,0,2.12,2.3,9.69,9.69,0,0,0,1.74,1.08A11,11,0,0,0,7,15.16h.35L8.15,15a1.9,1.9,0,0,1,1.35.42l.9.5a.74.74,0,0,1,.41.16,6.19,6.19,0,0,0,3.12.68h.28l.2.2c.08.06.12.2.15.42s-.15.38-.44.46a4.58,4.58,0,0,1-1.47.12,9,9,0,0,0-1.46-.12,1.83,1.83,0,0,0,1.06.75c.64.05,1.13.08,1.49.08h.77a1,1,0,0,1,.52,0l.12-.3a1.61,1.61,0,0,1,.15-.6l.32-.6a.34.34,0,0,1,.28,0,.14.14,0,0,1,.07.12l-.06.39V18a3.43,3.43,0,0,1,.27-.39l.26-.4a.88.88,0,0,1,.4-.29.35.35,0,0,1,.33,0q.21.18.21.21l-.1.13-.4.8.65-.31a2.94,2.94,0,0,1,.6-.24.93.93,0,0,1,.6-.08.57.57,0,0,1,.39.26c.09.2.11.31.06.34l-1.11.54a9.83,9.83,0,0,0-1.82,1.33l-2.64.81a1.77,1.77,0,0,1-.92.09,4.22,4.22,0,0,1-1-.09,13.29,13.29,0,0,1-2.53-.57A16.28,16.28,0,0,1,4.69,18l-.87-.65L1,20.63V8.6A5.93,5.93,0,0,0,1.78,11.25Z"/><path class="cls-3" d="M25.52,23.77V1.47H1.62v22.3Zm.35-23a.34.34,0,0,1,.25.11.34.34,0,0,1,.11.25v23a.36.36,0,0,1-.11.25.33.33,0,0,1-.25.1H1.26a.34.34,0,0,1-.35-.35v-23A.33.33,0,0,1,1,.87.36.36,0,0,1,1.26.76Z"/><path class="cls-4" d="M16.6,12.61a3,3,0,0,1-.91,2.17,2.92,2.92,0,0,1-2.11.86,3.06,3.06,0,0,1-2.16-5.21,3,3,0,0,1,2.16-.88,2.87,2.87,0,0,1,2.11.88A3,3,0,0,1,16.6,12.61Zm.45,0a3.44,3.44,0,0,1-5.91,2.45,3.29,3.29,0,0,1-1-2.45,3.38,3.38,0,0,1,1-2.49,3.48,3.48,0,0,1,4.92,0A3.47,3.47,0,0,1,17.05,12.64Zm-1.13-2.36a3.17,3.17,0,0,0-2.32-1,3.25,3.25,0,0,0-2.34,1,3.15,3.15,0,0,0-1,2.33,3.18,3.18,0,0,0,1,2.34,3.24,3.24,0,0,0,2.34.94A3.16,3.16,0,0,0,15.92,15a3.21,3.21,0,0,0,.94-2.34A3.17,3.17,0,0,0,15.92,10.28Z"/><path class="cls-3" d="M15.32,11.13a.63.63,0,0,1,.18.46.64.64,0,0,1-.67.67.66.66,0,0,1-.49-.19.61.61,0,0,1-.21-.48.67.67,0,0,1,.21-.46.66.66,0,0,1,.49-.19A.68.68,0,0,1,15.32,11.13Zm0,1.41a.7.7,0,0,1,.2.49v1.25H14.19V13a.66.66,0,0,1,.19-.49.81.81,0,0,1,.48-.19h0A.87.87,0,0,1,15.35,12.54Zm-3.51-.93a.55.55,0,0,1,.42-.16.54.54,0,0,1,.42.16.58.58,0,0,1,.18.4.57.57,0,0,1-.18.41.61.61,0,0,1-.42.17.69.69,0,0,1-.42-.17.53.53,0,0,1-.17-.41A.52.52,0,0,1,11.84,11.61Zm0,1.19a.71.71,0,0,1,.26-.15h.37a.6.6,0,0,1,.25.15l.06.07a.45.45,0,0,1,.11.31v.46l.15.64H11.49l.16-.72v-.38A.52.52,0,0,1,11.84,12.8Zm2-.39a.33.33,0,0,1,.1.26.37.37,0,0,1-.1.28.39.39,0,0,1-.27.1.42.42,0,0,1-.28-.1.5.5,0,0,1-.11-.28.36.36,0,0,1,.11-.26.42.42,0,0,1,.28-.1A.39.39,0,0,1,13.83,12.41Zm-.26.7a.43.43,0,0,1,.31.13.46.46,0,0,1,.12.3v.74h-.88v-.74a.42.42,0,0,1,.14-.3A.45.45,0,0,1,13.57,13.11Z"/></g></symbol></defs><title>Asset 4</title><g id="Layer_2" data-name="Layer 2"><g id="Layer_1-2" data-name="Layer 1"><use width="27.17" height="25.57" transform="scale(10.71)" xlink:href="#logoisoletras_2"/><path class="cls-5" d="M665.83,48.54a72.76,72.76,0,0,0-17.43-9,52.76,52.76,0,0,0-17.33-3.11c-4.06,0-7.13.77-9.24,2.31a6.69,6.69,0,0,0-3.1,5.59v.38a6.65,6.65,0,0,0,1,3.69,9.65,9.65,0,0,0,3.35,3A47,47,0,0,0,629.61,54c2.79.85,6.33,1.76,10.57,2.73a141.37,141.37,0,0,1,19.15,5.36,57.21,57.21,0,0,1,14.59,7.53,29.27,29.27,0,0,1,9.16,10.69,32.45,32.45,0,0,1,3.23,15v.36a38.22,38.22,0,0,1-3.65,17,36,36,0,0,1-10.21,12.58,43.73,43.73,0,0,1-15.67,8A71,71,0,0,1,636.3,136a97.2,97.2,0,0,1-31.62-5.09,77.94,77.94,0,0,1-26.42-15.51L597.34,92.6q18.54,14.84,40.17,14.83c4.58,0,8.09-.74,10.5-2.18A6.91,6.91,0,0,0,651.67,99v-.37a6.74,6.74,0,0,0-.85-3.41,9,9,0,0,0-3.28-3,31.6,31.6,0,0,0-6.45-2.72c-2.63-.85-6.08-1.79-10.32-2.79q-9.84-2.26-18.36-5a57.76,57.76,0,0,1-14.77-7.12,32.3,32.3,0,0,1-9.9-10.73q-3.66-6.51-3.65-16v-.36a38.18,38.18,0,0,1,3.29-16A35.08,35.08,0,0,1,596.92,19,45,45,0,0,1,612,10.8a64.46,64.46,0,0,1,20.06-2.91A88.92,88.92,0,0,1,660.36,12a69.75,69.75,0,0,1,22.55,12.32ZM565.74,133.81H535.66l-52.93-68v68h-33.9V10h32l50.92,65.45V10h34ZM411.64,48.54a72.75,72.75,0,0,0-17.46-9,52.55,52.55,0,0,0-17.3-3.11c-4.06,0-7.15.77-9.24,2.31a6.7,6.7,0,0,0-3.11,5.59v.38a6.66,6.66,0,0,0,1,3.69,9.43,9.43,0,0,0,3.34,3A46.46,46.46,0,0,0,375.41,54q4.18,1.27,10.58,2.73a141.21,141.21,0,0,1,19.14,5.36,56.81,56.81,0,0,1,14.58,7.53,29.65,29.65,0,0,1,9.19,10.69,32.7,32.7,0,0,1,3.22,15v.36a38,38,0,0,1-3.66,17,36.12,36.12,0,0,1-10.2,12.58,44,44,0,0,1-15.68,8A71,71,0,0,1,382.1,136a97.23,97.23,0,0,1-31.61-5.09,77.79,77.79,0,0,1-26.43-15.51L343.15,92.6q18.53,14.84,40.16,14.83c4.58,0,8.09-.74,10.51-2.18A6.92,6.92,0,0,0,397.47,99v-.37a6.64,6.64,0,0,0-.85-3.41,9.13,9.13,0,0,0-3.28-3,31.6,31.6,0,0,0-6.45-2.72c-2.62-.85-6.07-1.79-10.32-2.79q-9.85-2.26-18.35-5a57.67,57.67,0,0,1-14.78-7.12,32.51,32.51,0,0,1-9.9-10.73q-3.65-6.51-3.64-16v-.36a38.32,38.32,0,0,1,3.27-16A35.33,35.33,0,0,1,342.72,19a44.88,44.88,0,0,1,15.07-8.21,64.53,64.53,0,0,1,20-2.91A89,89,0,0,1,406.16,12a69.75,69.75,0,0,1,22.55,12.32Z"/><path class="cls-1" d="M336.2,186.37a8.06,8.06,0,0,0,8.16,5.82c3.95,0,6.78-2.29,6.78-6.19,0-9.34-17.51-6.94-17.51-19,0-5.34,4.06-9.55,10.67-9.55a10.88,10.88,0,0,1,10.57,7.15l-3.62,1.49a7.56,7.56,0,0,0-7-4.69c-4.11,0-6.29,2.51-6.29,5.6,0,8.54,17.55,6.78,17.55,18.73,0,5.87-4.32,10.47-11.31,10.47-7.26,0-10.52-4.65-11.69-8.23Z"/><path class="cls-1" d="M361.91,158.14h17.72v4h-13.4v12.44h11.69v3.89H366.23V191.6h14v3.9h-18.3Z"/><path class="cls-1" d="M387.2,158.14h9.5c7.63,0,11.63,3.84,11.63,10.36,0,4.42-2.18,8.48-6.51,9.86l9.29,17.14h-4.8l-8.44-16.22h-6.35V195.5H387.2Zm9.5,17.34c4.37,0,7.09-2,7.09-6.93,0-4-2.08-6.57-7.36-6.57h-4.91v13.5Z"/><path class="cls-1" d="M425.78,195.5l-14.2-37.36h4.75l11.74,32.24,11.79-32.24h4.75l-14.2,37.36Z"/><path class="cls-1" d="M449.3,158.14h4.32V195.5H449.3Z"/><path class="cls-1" d="M490.92,191.92a18.67,18.67,0,0,1-12.06,4.28c-10.94,0-18.94-8.33-18.94-19.38s8.27-19.37,18.84-19.37a18.56,18.56,0,0,1,11.58,3.9L489,165.19a16.37,16.37,0,0,0-10.09-3.68c-8.27,0-14.46,6.61-14.46,15.31s5.92,15.32,14.57,15.32a16.4,16.4,0,0,0,10.62-4Z"/><path class="cls-1" d="M497.05,158.14h4.33V195.5h-4.33Z"/><path class="cls-1" d="M526.66,157.45c10.89,0,19.06,8.49,19.06,19.37s-8.22,19.38-19.11,19.38-19-8.28-19-19.38S515.83,157.45,526.66,157.45Zm0,34.69c8.28,0,14.58-6.46,14.58-15.32s-6.3-15.31-14.58-15.31-14.56,6.56-14.56,15.31S518.4,192.14,526.66,192.14Z"/><path class="cls-1" d="M565.5,158.14h4.32l20.6,30.53V158.14h4.27V195.5h-4.27l-20.6-30.42V195.5H565.5Z"/><path class="cls-1" d="M608.4,183.39l-4.49,12.11h-4.37l14-37.36h4.38l14,37.36H627.5L623,183.39Zm7.31-20.49-6,16.75h12Z"/><path class="cls-1" d="M664.58,191.92a18.67,18.67,0,0,1-12.06,4.28c-10.94,0-18.94-8.33-18.94-19.38s8.27-19.37,18.84-19.37a18.56,18.56,0,0,1,11.58,3.9l-1.39,3.84a16.37,16.37,0,0,0-10.09-3.68c-8.27,0-14.46,6.61-14.46,15.31s5.92,15.32,14.57,15.32a16.38,16.38,0,0,0,10.62-4Z"/><path class="cls-1" d="M670.71,158.14H675V195.5h-4.33Z"/><path class="cls-1" d="M700.32,157.45c10.89,0,19.06,8.49,19.06,19.37s-8.22,19.38-19.11,19.38-19-8.28-19-19.38S689.5,157.45,700.32,157.45Zm0,34.69c8.28,0,14.58-6.46,14.58-15.32s-6.3-15.31-14.58-15.31-14.56,6.56-14.56,15.31S692.06,192.14,700.32,192.14Z"/><path class="cls-1" d="M725.61,158.14h4.32l20.6,30.53V158.14h4.27V195.5h-4.27l-20.6-30.42V195.5h-4.32Z"/><path class="cls-1" d="M768.51,183.39,764,195.5h-4.37l14-37.36H778l14,37.36h-4.38l-4.48-12.11Zm7.31-20.49-6,16.75h12Z"/><path class="cls-1" d="M796.89,158.14h4.32V191.6h14v3.9h-18.3Z"/><path class="cls-1" d="M334.36,216.48h10.45c12.86,0,20.85,7.36,20.85,19.66,0,12.58-8,19.67-20.85,19.67H334.36ZM345.09,249c7.48,0,12.3-4.33,12.3-12.81,0-8.26-4.82-12.75-12.3-12.75h-2.81V249Z"/><path class="cls-1" d="M371.15,216.48h20.22v7.13h-12.3v8.77h10.56v7H379.07v9.32h12.81v7.09H371.15Z"/><path class="cls-1" d="M435.24,224.34l-6.58,3c-.84-1.86-2.3-4.27-5.73-4.27-2.69,0-4.27,1.63-4.27,3.76,0,6.52,17.09,5.57,17.09,17.76,0,6.91-4.95,12-13.15,12a13.28,13.28,0,0,1-13-9.1l6.69-3.26c1.07,2.59,3.26,5,6.8,5,2.92,0,4.66-1.52,4.66-4.05,0-6.74-17-5.62-17-18.2,0-6.63,4.83-11.18,12.36-11.18A12.41,12.41,0,0,1,435.24,224.34Z"/><path class="cls-1" d="M449.44,245.69,446,255.81h-8L452,216.48h8.32l13.93,39.33h-8l-3.43-10.12ZM456.13,225l-4.55,14.16h9.16Z"/><path class="cls-1" d="M478.42,216.48h7.92v32.19h12.81v7.14H478.42Z"/><path class="cls-1" d="M502.68,241V216.48h7.92V241c0,5,2.87,8.15,7.92,8.15s7.92-3.15,7.92-8.15V216.48h7.93V241c0,9.27-5.68,15.5-15.85,15.5S502.68,250.3,502.68,241Z"/><path class="cls-1" d="M541.71,216.48h10.45c12.87,0,20.85,7.36,20.85,19.66,0,12.58-8,19.67-20.85,19.67H541.71ZM552.45,249c7.47,0,12.3-4.33,12.3-12.81,0-8.26-4.83-12.75-12.3-12.75h-2.81V249Z"/></g></g></svg>